<?xml version="1.0" encoding="utf-8"?>
<!-- Generator: Adobe Illustrator 16.0.4, SVG Export Plug-In . SVG Version: 6.00 Build 0)  -->
<!DOCTYPE svg PUBLIC "-//W3C//DTD SVG 1.1//EN" "http://www.w3.org/Graphics/SVG/1.1/DTD/svg11.dtd">
<svg version="1.1" id="Ebene_1" xmlns="http://www.w3.org/2000/svg" xmlns:xlink="http://www.w3.org/1999/xlink" x="0px" y="0px"
	 width="283.46px" height="283.46px" viewBox="0 0 283.46 283.46" enable-background="new 0 0 283.46 283.46" xml:space="preserve">
<polygon id="Splitter_3_1_" fill="#E30D1E" points="158.25,228.5 158.25,249.75 174.5,249.75 168.25,228.75 163.875,233.375 "/>
<polygon id="Splitter_2_1_" fill="#E30D1E" points="180.75,217.5 214,236.75 214,218 181,210.75 187.5,214.75 "/>
<polygon id="Splitter_1_1_" fill="#E30D1E" points="195.75,199.75 220.25,200 220.25,188.5 "/>
<path id="Schloss_unten_1_" fill="#E30D1E" d="M142.25,195.584l2.666-8.667l-23.628,12.881l5.087,17.869H88.508l-32.751,18.087
	c12.461,9.262,27.898,14.746,44.618,14.746c40.562,0,73.566-32.259,74.815-72.516L142.25,195.584z"/>
<g id="Schlüssel_x2F_Schloss">
	<path fill="#E30D1E" d="M139.043,125.708H33.958V88.75h0.014c-0.002-0.182-0.014-0.36-0.014-0.542
		c0-29.019,23.524-52.542,52.542-52.542c21.977,0,40.792,13.498,48.635,32.652l20.355,10.104
		c-5.186-33.444-34.092-59.046-68.99-59.046c-38.539,0-69.785,31.22-69.831,69.748h-0.003v36.585h-5.312v46.057
		c0,24.253,11.433,45.823,29.188,59.658L75.433,212.5H61.125l9.395-32.577c-5.809-4.745-9.52-11.962-9.52-20.048
		C61,145.585,72.585,134,86.875,134s25.875,11.585,25.875,25.875c0,8.201-3.82,15.506-9.773,20.247l4.672,14.905L131.667,182
		L129,190.667l33.53-17.257c0.013-0.549,0.042-1.093,0.042-1.645c0-0.89-0.021-1.773-0.052-2.655v-43.402h-6.187v-17.695
		l-17.291-8.584V125.708z"/>
	<path fill="#E30D1E" d="M104.002,82.034l2.313,1.148l-11.478,23.121l17.425-5.864l5.773,17.379l0.091,0.045l11.478-23.12
		l9.439,4.686V88.208c0-7.042-1.395-13.754-3.908-19.891l-19.515-9.688L104.002,82.034z"/>
	<path fill="#E30D1E" d="M246.252,77.849c-22.566-11.203-49.225-4.988-64.736,13.492L155.49,78.421
		c0.524,3.38,0.811,6.838,0.832,10.36h0.012v19.232l13.748,6.825c-4.874,23.271,6.304,47.788,28.593,58.854
		c26.466,13.138,58.571,2.334,71.71-24.133C283.522,123.093,272.719,90.988,246.252,77.849z M245.638,137.157
		c-6.34,12.77-21.829,17.982-34.599,11.644c-12.769-6.339-17.982-21.829-11.644-34.599s21.83-17.982,34.599-11.643
		C246.764,108.898,251.977,124.388,245.638,137.157z"/>
</g>
<g>
</g>
<g>
</g>
<g>
</g>
<g>
</g>
<g>
</g>
<g>
</g>
</svg>
