<?xml version="1.0" encoding="utf-8"?>
<!-- Generator: Adobe Illustrator 16.0.4, SVG Export Plug-In . SVG Version: 6.00 Build 0)  -->
<!DOCTYPE svg PUBLIC "-//W3C//DTD SVG 1.1//EN" "http://www.w3.org/Graphics/SVG/1.1/DTD/svg11.dtd">
<svg version="1.1" id="Layer_1" xmlns="http://www.w3.org/2000/svg" xmlns:xlink="http://www.w3.org/1999/xlink" x="0px" y="0px"
	 width="307.332px" height="306.23px" viewBox="0 0 307.332 306.23" enable-background="new 0 0 307.332 306.23"
	 xml:space="preserve">
<g id="Layer_3">
	<path fill="#E6E6E6" d="M153.57,10C74.657,10,10.457,74.201,10.457,153.115S74.657,296.23,153.57,296.23
		c78.915,0,143.116-64.201,143.116-143.115S232.484,10,153.57,10z"/>
	<circle fill="none" stroke="#231F20" stroke-width="10" stroke-miterlimit="10" cx="153.571" cy="153.115" r="148.114"/>
</g>
<g id="Layer_1_1_">
</g>
<g id="type">
	<g>
		<path fill="#FFFFFF" stroke="#231F20" stroke-width="18.8975" stroke-miterlimit="10" d="M132.913,99.764"/>
	</g>
	<path fill="#FFFFFF" d="M125.688,98.185c0-10.74,2.497-18.454,7.634-23.584c6.848-6.841,16.06-6.824,22.782-6.823h0.683
		c9.7,0,17.176,4.932,21.046,13.888c0.909,2.106,1.512,4.189,1.909,6.037l20.446-0.031c-0.338-9.295-3.852-18.191-10.018-25.047
		c-6.064-6.744-17.482-14.784-37.43-14.783c-31.509,0-46.307,13.869-46.569,43.646v29.292h19.655
		c-0.001-5.958-0.043-9.725-0.081-13.762C125.715,103.857,125.688,101.042,125.688,98.185z"/>
	<path fill="#231F20" d="M218.102,120.777h-79.274c-0.004-5.62-0.139-19.776-0.139-22.593c0-7.015,1.286-11.854,3.82-14.388
		c3.037-3.03,14.278-3.02,14.278-3.02c10.071,0,10.706,11.219,10.729,13.433v6.512l44.778-0.067l0.617-5.805
		c1.593-14.994-3.175-29.908-13.076-40.918c-11.071-12.312-27.798-19.091-47.096-19.091c-38.645,0-59.243,19.549-59.569,56.528
		l-0.27,29.409h-5.522c-7.555,0-13.7,6.146-13.7,13.7v115.209c0,7.555,6.146,13.699,13.7,13.699l130.722,0.002
		c7.555,0,13.698-6.146,13.698-13.7l0.003-115.211C231.801,126.923,225.654,120.777,218.102,120.777z M106.171,91.486
		c0.263-29.776,15.061-43.646,46.569-43.646c19.945,0,31.363,8.039,37.43,14.783c6.166,6.855,9.68,15.752,10.018,25.047
		l-20.446,0.031c-0.397-1.848-1-3.931-1.909-6.037c-3.87-8.956-11.346-13.888-21.046-13.888h-0.683
		c-6.723-0.001-15.935-0.018-22.782,6.823c-5.137,5.13-7.634,12.845-7.634,23.584c0,2.856,0.135,17.032,0.139,22.593h-19.655
		L106.171,91.486L106.171,91.486z M218.798,249.688c0,0.373-0.325,0.7-0.698,0.7l-130.722-0.002c-0.373,0-0.7-0.326-0.7-0.699
		V134.478c0-0.373,0.327-0.7,0.7-0.7l100.353-0.001l-10.276,23.961l10.801,8.404l-20.618,28.043l7.883,18.94l-11.554,30.944
		l34.308-34.647l-8.021-12.231l19.266-33.963l-13.345-12.623l8.683-16.828h13.248c0.373,0,0.699,0.327,0.699,0.7L218.798,249.688z"
		/>
	<path fill="#FFFFFF" d="M218.102,133.777h-13.248l-8.683,16.828l13.345,12.623l-19.266,33.963l8.021,12.231l-34.308,34.647
		l11.554-30.944l-7.884-18.94l20.619-28.043l-10.801-8.404l10.276-23.961l-100.353,0.001c-0.373,0-0.7,0.327-0.7,0.7v115.209
		c0,0.373,0.327,0.699,0.7,0.699l130.722,0.002c0.373,0,0.698-0.327,0.698-0.7l0.003-115.211
		C218.801,134.104,218.475,133.777,218.102,133.777z"/>
</g>
<linearGradient id="SVGID_1_" gradientUnits="userSpaceOnUse" x1="147.873" y1="174.1003" x2="147.873" y2="0.0774" gradientTransform="matrix(1 -0.0025 -0.0025 -1 6.0864 308.9031)">
	<stop  offset="0" style="stop-color:#0065C6"/>
	<stop  offset="1" style="stop-color:#8CC8DD"/>
</linearGradient>
<path opacity="0.7" fill="url(#SVGID_1_)" enable-background="new    " d="M11.498,135.87c-0.682,5.655-1.042,11.409-1.042,17.245
	C10.457,232.029,74.657,296.23,153.57,296.23c78.915,0,143.116-64.201,143.116-143.115c0-0.65-0.018-1.296-0.024-1.944
	c-74.683,2.348-77.201,21.401-121.312,21.492C124.008,172.767,72.45,141.909,11.498,135.87"/>
</svg>
