<?xml version="1.0" encoding="utf-8"?>
<!-- Generator: Adobe Illustrator 16.0.3, SVG Export Plug-In . SVG Version: 6.00 Build 0)  -->
<!DOCTYPE svg PUBLIC "-//W3C//DTD SVG 1.1 Basic//EN" "http://www.w3.org/Graphics/SVG/1.1/DTD/svg11-basic.dtd">
<svg version="1.1" baseProfile="basic" id="Layer_1"
	 xmlns="http://www.w3.org/2000/svg" xmlns:xlink="http://www.w3.org/1999/xlink" x="0px" y="0px" width="283.46px"
	 height="283.46px" viewBox="0 0 283.46 283.46" xml:space="preserve">
<path fill-rule="evenodd" clip-rule="evenodd" fill="#C94526" d="M275,141.729c0.611,72.302-58.557,133.45-133.039,133.559
	C67.824,275.396,8.215,215.368,8.225,141.786C8.234,68.804,67.17,8.295,141.771,8.363C216.826,8.433,275.424,69.58,275,141.729z"/>
<g>
	<path fill-rule="evenodd" clip-rule="evenodd" fill="#121212" d="M129.872,91.64c-0.02-0.586-0.413-1.027-0.671-1.513
		c-1.844-3.449-3.628-6.933-5.576-10.321c-0.896-1.562-0.789-2.818,0.131-4.308c2.449-3.959,4.776-7.993,7.201-12.08
		c-1.906-1.718-3.783-3.412-5.662-5.103c-2.568-2.313-5.137-4.624-7.713-6.927c-0.713-0.638-1.311-1.328-1.13-2.37
		c0.163-0.939,0.888-1.432,1.612-1.92c5.008-3.379,10.012-6.762,15.016-10.146c2.05-1.386,4.092-2.783,6.145-4.166
		c1.697-1.145,2.155-1.144,3.881,0.024c14.294,9.675,28.587,19.353,42.879,29.031c14.436,9.775,28.868,19.554,43.305,29.326
		c0.427,0.288,0.861,0.615,1.341,0.764c1.252,0.385,1.706,1.268,1.729,2.475c0.014,0.691,0.014,1.382,0.014,2.074
		c0,35.538,0,71.076,0,106.614c0,3.259-0.422,3.678-3.674,3.678c-57.944,0-115.889,0-173.833-0.001
		c-0.749,0-1.499,0.026-2.246-0.015c-1.384-0.077-2.103-0.771-2.226-2.132c-0.041-0.457-0.016-0.921-0.016-1.381
		c0-35.941,0-71.884,0.001-107.825c0-0.46-0.028-0.924,0.016-1.381c0.129-1.323,0.886-2.077,2.216-2.205
		c0.456-0.044,0.92-0.01,1.381-0.01c24.825-0.001,49.65,0,74.475-0.009C128.905,91.813,129.375,91.965,129.872,91.64z"/>
	<path fill-rule="evenodd" clip-rule="evenodd" fill="#FDFDFD" d="M223.518,201.741c-54.91,0-109.818,0-164.772,0
		c0.042-0.615,0.519-0.805,0.83-1.083c17.879-15.946,35.767-31.885,53.652-47.823c1.369-1.221,1.146-0.981,2.337,0.052
		c0.564,0.491,1.094,1.031,1.699,1.467c0.948,0.683,1.748,0.64,2.688-0.078c0.365-0.279,0.683-0.618,1.014-0.938
		c3.274-3.158,6.566-6.301,9.805-9.495c0.717-0.707,1.445-0.97,2.442-0.954c7.832,0.116,15.665,0.199,23.498,0.241
		c1.051,0.006,1.828,0.293,2.618,0.997c21.137,18.87,42.295,37.716,63.452,56.563c0.298,0.266,0.62,0.502,0.931,0.753
		C223.646,201.541,223.582,201.641,223.518,201.741z"/>
	<path fill-rule="evenodd" clip-rule="evenodd" fill="#8C8B8A" d="M222.372,91.644c-0.585,0.388-0.992,0.26-1.373,0.26
		c-7.888,0.008-15.773,0.006-23.661,0.004c-1.754-0.001-1.76-0.003-2.346-1.754c-1.26-3.76-2.507-7.525-3.77-11.284
		c-0.988-2.938-1.648-3.264-4.558-2.288c-14.649,4.908-29.308,9.789-43.938,14.753c-2.388,0.809-4.777,0.455-7.173,0.561
		c-0.557,0.024-0.79-0.393-1.012-0.806c-2.26-4.205-4.496-8.424-6.797-12.606c-0.441-0.804-0.023-1.298,0.318-1.875
		c2.283-3.861,4.574-7.719,6.861-11.577c0.059-0.101,0.12-0.197,0.178-0.297c1.023-1.753,0.955-2.429-0.506-3.761
		c-2.553-2.325-5.131-4.623-7.699-6.931c-1.371-1.23-2.75-2.45-4.113-3.688c-0.774-0.704-0.783-0.769,0.098-1.373
		c2.467-1.693,4.955-3.354,7.432-5.031c3.189-2.163,6.375-4.331,9.566-6.492c1.281-0.868,1.287-0.867,2.531-0.025
		c8.574,5.806,17.146,11.615,25.719,17.422c14.527,9.839,29.056,19.676,43.584,29.515c3.19,2.162,6.38,4.325,9.568,6.49
		C221.609,91.08,221.924,91.319,222.372,91.644z"/>
	<path fill-rule="evenodd" clip-rule="evenodd" fill="#FDFDFD" d="M111.063,148.92c-18.73,16.331-37.327,32.545-56.105,48.917
		c0-33.029,0-65.834,0-98.915C73.698,115.623,92.283,132.185,111.063,148.92z"/>
	<path fill-rule="evenodd" clip-rule="evenodd" fill="#FDFDFD" d="M171.211,148.901c18.754-16.713,37.31-33.248,55.828-49.753
		c0.146,0.05,0.206,0.062,0.254,0.09c0.043,0.025,0.104,0.07,0.104,0.106c0.029,32.235,0.055,64.47,0.079,96.705
		c0.001,0.502,0.001,1.003,0.001,1.905C208.566,181.47,189.942,165.232,171.211,148.901z"/>
	<path fill-rule="evenodd" clip-rule="evenodd" fill="#FDFDFD" d="M58.298,96.112c0.986,0,1.593,0,2.2,0
		c23.198-0.001,46.396-0.001,69.596-0.001c0.23,0,0.466,0.033,0.689-0.007c0.973-0.167,1.275,0.356,1.428,1.213
		c0.449,2.546,0.959,5.082,1.443,7.622c0.139,0.733,0.166,1.507,0.422,2.196c0.563,1.525,0.12,2.694-0.832,3.947
		c-2.398,3.16-4.619,6.457-7.003,9.63c-0.949,1.264-1.028,2.395-0.411,3.824c1.705,3.956,3.285,7.965,4.93,11.947
		c0.253,0.613,0.392,1.092-0.209,1.664c-4.002,3.807-7.963,7.655-12.058,11.607C98.512,131.948,78.559,114.166,58.298,96.112z"/>
	<path fill-rule="evenodd" clip-rule="evenodd" fill="#FBF2A0" d="M136.199,114.711c0.071-1.061,0.872-1.728,1.46-2.454
		c1.064-1.316,1.368-2.625,0.956-4.309c-0.682-2.786-1.113-5.633-1.667-8.451c-0.298-1.515-0.315-1.515,1.169-2.012
		c11.687-3.914,23.373-7.829,35.061-11.74c4.238-1.419,8.478-2.831,12.718-4.242c1.361-0.453,1.384-0.454,1.807,0.802
		c3.863,11.479,7.721,22.96,11.567,34.445c0.168,0.503,0.498,1.005-0.126,1.542c-2.174,1.875-4.298,3.806-6.472,5.742
		c-0.409-0.464-0.049-1.112-0.563-1.411c-3.124-1.718-6.343-3.249-9.527-4.845c-2.507-1.255-3.082-1.06-4.318,1.386
		c-0.908,1.797-1.818,3.595-2.701,5.403c-0.546,1.12-1.279,1.333-2.373,0.779c-1.898-0.961-3.786-1.948-5.719-2.841
		c-1.943-0.898-2.805-0.601-3.779,1.271c-0.903,1.734-1.736,3.505-2.639,5.24c-0.885,1.697-1.291,1.835-2.983,1.026
		c-1.558-0.742-3.087-1.544-4.636-2.305c-2.627-1.288-3.36-1.045-4.789,1.566c-0.135,0.255-0.291,0.499-0.435,0.749
		c-0.06,0.115-0.13,0.229-0.202,0.338c-0.096,0.163-0.189,0.33-0.271,0.502c-0.05,0.115-0.109,0.227-0.168,0.338
		c-0.051,0.116-0.109,0.228-0.166,0.342c-0.053,0.116-0.111,0.228-0.173,0.34c-0.052,0.117-0.11,0.23-0.169,0.345
		c-0.052,0.118-0.113,0.23-0.174,0.343c-0.053,0.118-0.112,0.232-0.17,0.348c-0.053,0.118-0.113,0.23-0.176,0.343
		c-0.051,0.117-0.111,0.229-0.168,0.344c-0.051,0.115-0.111,0.225-0.172,0.334c-0.051,0.112-0.107,0.223-0.164,0.332
		c-0.051,0.109-0.109,0.217-0.171,0.32c-0.081,0.161-0.162,0.322-0.243,0.485c-0.055,0.11-0.125,0.208-0.205,0.3
		c-0.088,0.089-0.187,0.16-0.297,0.217c-0.119,0.038-0.239,0.049-0.363,0.03c-0.178-0.049-0.344-0.125-0.512-0.201
		c-0.111-0.043-0.221-0.097-0.326-0.152c-0.109-0.051-0.215-0.107-0.32-0.162c-0.109-0.048-0.213-0.104-0.316-0.163
		c-0.156-0.083-0.313-0.166-0.475-0.24c-0.113-0.044-0.221-0.098-0.328-0.152c-0.113-0.048-0.222-0.103-0.332-0.157
		c-0.114-0.05-0.224-0.107-0.334-0.165c-0.115-0.05-0.227-0.109-0.338-0.166c-0.117-0.05-0.229-0.109-0.34-0.17
		c-0.117-0.052-0.23-0.111-0.344-0.17c-0.117-0.051-0.23-0.111-0.344-0.172c-0.115-0.052-0.229-0.112-0.342-0.17
		c-0.117-0.052-0.229-0.111-0.341-0.172c-0.114-0.052-0.226-0.11-0.337-0.168c-0.112-0.051-0.222-0.11-0.33-0.169
		c-0.109-0.051-0.217-0.11-0.323-0.166c-0.108-0.05-0.214-0.107-0.316-0.166c-0.155-0.086-0.311-0.17-0.472-0.246
		c-0.113-0.044-0.222-0.097-0.33-0.152c-0.172-0.078-0.345-0.154-0.522-0.222c-0.131-0.037-0.258-0.077-0.388-0.112
		c-0.345-0.076-0.684-0.065-1.02,0.038c-0.127,0.055-0.254,0.105-0.379,0.163c-0.316,0.145-0.551,0.4-0.822,0.605
		c-0.063,0.027-0.127,0.053-0.191,0.077c-0.222,0.009-0.469,0.082-0.585-0.203c-1.212-2.971-2.417-5.943-3.644-8.907
		c-0.146-0.351-0.192-0.633,0.039-0.952c1.012-1.393,2.016-2.79,3.019-4.188c0.208-0.291,0.501-0.204,0.778-0.197
		c0.078-0.009,0.158-0.017,0.236-0.026c0.333-0.002,0.635,0.112,0.934,0.241c1.047,0.484,2.061,1.034,3.107,1.514
		c1.512,0.691,2.127,0.528,3.037-0.879c1.16-1.796,1.813-3.848,2.816-5.728c0.992-1.86,1.307-2.025,3.212-1.102
		c1.762,0.854,3.486,1.786,5.265,2.604c1.859,0.856,2.694,0.557,3.633-1.249c0.93-1.788,1.771-3.623,2.727-5.396
		c0.812-1.511,1.367-1.687,2.932-0.952c1.824,0.857,3.594,1.825,5.417,2.685c1.856,0.874,2.658,0.604,3.638-1.233
		c0.894-1.676,1.698-3.399,2.561-5.094c1.064-2.089,1.292-2.161,3.452-1.1c1.499,0.737,2.983,1.501,4.483,2.236
		c0.621,0.305,1.25,0.595,1.939,0.709c0.758,0.126,1.387-0.101,1.756-0.793c0.399-0.751,0.265-1.457-0.35-2.044
		c-0.635-0.605-1.435-0.953-2.206-1.34c-2.265-1.135-4.528-2.275-6.803-3.389c-2.148-1.053-2.839-0.808-3.952,1.368
		c-0.917,1.794-1.844,3.586-2.709,5.404c-0.605,1.273-1.399,1.496-2.629,0.855c-1.889-0.982-3.779-1.971-5.724-2.842
		c-1.819-0.814-2.58-0.545-3.511,1.205c-0.893,1.677-1.695,3.4-2.562,5.092c-1.091,2.132-1.518,2.278-3.621,1.254
		c-1.708-0.834-3.388-1.726-5.11-2.526c-1.681-0.781-2.527-0.517-3.418,1.102c-1.002,1.813-1.857,3.706-2.822,5.54
		C138.641,116.356,137.814,116.423,136.199,114.711z"/>
	<path fill-rule="evenodd" clip-rule="evenodd" fill="#FBF2A0" d="M189.531,125.551c0.245,0.13,0.489,0.26,0.939,0.5
		c-0.32,0.266-0.609,0.49-0.881,0.733c-5.113,4.554-10.227,9.105-15.329,13.669c-0.608,0.546-1.171,1.009-2.096,0.939
		c-0.985-0.073-1.483,0.678-1.933,1.467c-0.453,0.794-0.678,1.714-1.35,2.388c-0.82,0.821-0.926,0.85-1.814,0.066
		c-1.771-1.559-3.58-3.079-5.266-4.724c-1.23-1.2-2.54-1.771-4.295-1.7c-2.641,0.106-5.291-0.017-7.938-0.061
		c-0.418-0.006-0.979,0.169-1.045-0.546c-0.002-0.061-0.004-0.119-0.006-0.179c0.012-0.118,0.041-0.233,0.081-0.345
		c0.042-0.109,0.097-0.213,0.155-0.314c0.08-0.152,0.158-0.307,0.229-0.464c0.039-0.108,0.091-0.211,0.146-0.312
		c0.045-0.104,0.098-0.205,0.152-0.306c0.045-0.105,0.104-0.204,0.164-0.302c0.082-0.153,0.159-0.309,0.231-0.468
		c0.046-0.112,0.101-0.218,0.157-0.325c0.049-0.113,0.104-0.222,0.159-0.333c0.05-0.115,0.108-0.225,0.168-0.335
		c0.051-0.115,0.108-0.227,0.165-0.337c0.051-0.115,0.109-0.227,0.17-0.336c0.051-0.113,0.109-0.224,0.166-0.335
		c0.051-0.114,0.111-0.224,0.173-0.333c0.085-0.172,0.165-0.347,0.243-0.525c0.053-0.129,0.113-0.251,0.179-0.375
		c0.14-0.272,0.302-0.526,0.563-0.699c0.797-0.419,1.45,0.048,2.109,0.366c1.709,0.826,3.383,1.724,5.104,2.525
		c1.968,0.915,2.927,0.589,3.944-1.326c0.944-1.777,1.826-3.589,2.711-5.397c0.611-1.251,1.453-1.486,2.664-0.861
		c1.688,0.869,3.387,1.716,5.094,2.546c2.369,1.155,3.135,0.889,4.397-1.471c0.87-1.624,1.532-3.348,2.396-4.975
		c0.906-1.709,1.209-1.862,2.955-0.932C185.314,123.264,187.646,123.996,189.531,125.551z"/>
	<path fill-rule="evenodd" clip-rule="evenodd" fill="#050607" d="M189.531,125.551c-1.969-0.65-3.715-1.774-5.588-2.633
		c-0.781-0.357-1.542-0.761-2.408-1.19c-0.814,1.115-1.279,2.403-1.906,3.599c-0.638,1.221-1.212,2.475-1.846,3.696
		c-0.901,1.734-1.909,2.098-3.654,1.264c-2.121-1.013-4.211-2.091-6.324-3.122c-1.073-0.524-1.097-0.514-1.643,0.565
		c-1.034,2.049-2.035,4.116-3.08,6.161c-0.943,1.845-1.913,2.178-3.775,1.276c-2.064-1-4.098-2.063-6.16-3.065
		c-0.471-0.228-0.998-0.729-1.523-0.045c-0.2,0.183-0.14,0.495-0.333,0.681l-0.007,0.013c-0.211,0.177-0.144,0.493-0.339,0.678
		l-0.007,0.014c-0.211,0.176-0.143,0.494-0.342,0.675l-0.006,0.015c-0.207,0.177-0.139,0.493-0.341,0.674l-0.007,0.017
		c-0.205,0.182-0.141,0.495-0.334,0.682l-0.006,0.012c-0.213,0.179-0.146,0.495-0.339,0.682l-0.005,0.01
		c-0.215,0.176-0.148,0.494-0.34,0.681l-0.006,0.012c-0.215,0.174-0.146,0.492-0.344,0.675l-0.007,0.014
		c-0.208,0.182-0.146,0.494-0.332,0.687c0,0-0.005,0.009-0.005,0.01c-2.429,0.748-4.859,1.144-7.295,0.027
		c-0.061-0.012-0.121-0.021-0.182-0.031c-0.123-0.02-0.242-0.055-0.358-0.102c-0.116-0.049-0.228-0.106-0.337-0.167
		c-0.115-0.051-0.228-0.11-0.34-0.166c-0.117-0.052-0.229-0.111-0.34-0.172c-0.115-0.052-0.227-0.109-0.339-0.167
		c-0.114-0.051-0.224-0.109-0.331-0.169c-0.11-0.049-0.218-0.106-0.324-0.162c-0.105-0.048-0.207-0.105-0.307-0.164
		c-0.145-0.076-0.291-0.153-0.441-0.217c-0.097-0.032-0.193-0.067-0.29-0.096c0.001,0.006-0.146-0.004-0.146-0.004
		s-0.146,0.022-0.145,0.029c-0.088,0.054-0.166,0.112-0.234,0.191c-0.061,0.092-0.131,0.17-0.208,0.245
		c0,0.002-0.141,0.08-0.141,0.08c-0.352,0.115-0.817,0.5-1.016-0.055c-0.521-1.47-1.615-2.765-1.417-4.463l-0.005,0.011
		c0.274-0.422,0.729-0.67,1.03-1.067l-0.014,0.01c0.634-0.226,1.271-0.185,1.908-0.015c0.1-0.049,0.17-0.021,0.211,0.08
		c0.141,0.121,0.279,0.248,0.477,0.264c0.102-0.045,0.172-0.018,0.215,0.084c0.141,0.119,0.278,0.246,0.477,0.262
		c0.101-0.044,0.173-0.015,0.215,0.086c0.143,0.119,0.279,0.246,0.479,0.259c0.1-0.043,0.171-0.015,0.213,0.087
		c0.146,0.121,0.287,0.253,0.494,0.256c0.096-0.046,0.161-0.02,0.196,0.08c0.144,0.131,0.287,0.263,0.499,0.266
		c0.095-0.048,0.158-0.021,0.192,0.08c0.142,0.128,0.281,0.258,0.487,0.268c0.098-0.045,0.166-0.017,0.205,0.084
		c0.143,0.123,0.281,0.252,0.486,0.261c0.098-0.044,0.165-0.016,0.204,0.084c0.148,0.128,0.292,0.263,0.507,0.261l0.117-0.016
		l0.066,0.096c0.149,0.133,0.296,0.271,0.518,0.264l0.11-0.018l0.063,0.094c0.144,0.135,0.288,0.269,0.503,0.271l0.117-0.016
		l0.072,0.096c0.146,0.131,0.289,0.266,0.505,0.265l-0.001,0.019c0.235-0.018,0.393-0.153,0.516-0.342l-0.014,0.018
		c0.243-0.17,0.18-0.495,0.357-0.697l-0.004,0.009c0.234-0.175,0.173-0.498,0.35-0.7l-0.004,0.008
		c0.234-0.174,0.174-0.496,0.348-0.701l-0.005,0.01c0.237-0.175,0.178-0.497,0.349-0.705l-0.006,0.013
		c0.24-0.171,0.179-0.495,0.354-0.698l-0.004,0.008c0.236-0.174,0.176-0.496,0.349-0.703l-0.006,0.012
		c0.239-0.175,0.181-0.497,0.349-0.706l-0.007,0.014c0.251-0.173,0.174-0.509,0.356-0.716c0.039-0.537,0.369-0.954,0.602-1.407
		c0.946-1.844,1.916-2.192,3.756-1.302c2.012,0.972,3.997,1.995,5.998,2.988c1.313,0.649,1.323,0.646,1.994-0.688
		c0.955-1.894,1.89-3.798,2.846-5.691c1.12-2.221,1.998-2.508,4.248-1.389c2.253,1.121,4.498,2.256,6.725,3.374
		c0.557-0.204,0.623-0.704,0.819-1.09c1.04-2.043,2.04-4.106,3.095-6.142c0.935-1.807,1.859-2.138,3.614-1.282
		c2.983,1.453,5.953,2.937,8.916,4.433c0.542,0.274,1.194,0.484,1.337,1.223c-0.01,0.113-0.021,0.226-0.026,0.34
		C192.002,125.278,191.904,125.377,189.531,125.551z"/>
	<path fill-rule="evenodd" clip-rule="evenodd" fill="#050607" d="M136.199,114.711c0.057,0.006,0.12,0,0.171,0.021
		c0.678,0.287,1.433,0.918,2.011,0.782c0.748-0.176,0.852-1.26,1.215-1.958c0.904-1.73,1.742-3.496,2.648-5.226
		c0.867-1.652,1.85-1.999,3.535-1.201c2.129,1.008,4.221,2.093,6.333,3.133c1.097,0.539,1.118,0.536,1.653-0.515
		c1.016-1.997,2.006-4.008,3.018-6.008c1.102-2.177,1.885-2.443,4.119-1.358c1.755,0.853,3.469,1.796,5.24,2.611
		c2.181,1.005,1.577,1.281,2.697-0.846c0.963-1.83,1.836-3.707,2.777-5.548c0.966-1.888,1.855-2.196,3.75-1.274
		c2.941,1.434,5.867,2.901,8.795,4.362c0.307,0.153,0.611,0.33,0.875,0.547c0.822,0.679,1.049,1.732,0.598,2.634
		c-0.484,0.971-1.563,1.456-2.611,1.122c-0.489-0.156-0.953-0.403-1.415-0.633c-2.21-1.101-4.416-2.21-6.742-3.376
		c-1.017,2.023-2.065,3.996-3.011,6.019c-1.457,3.118-2.032,3.891-5.792,1.896c-1.92-1.02-3.884-1.953-5.927-2.974
		c-1.119,2.223-2.176,4.319-3.23,6.417c-0.18,0.359-0.33,0.735-0.523,1.088c-0.837,1.527-1.826,1.889-3.438,1.138
		c-1.873-0.872-3.708-1.823-5.558-2.746c-1.994-0.995-1.99-0.997-2.943,0.929c-0.894,1.802-1.778,3.608-2.697,5.398
		c-0.973,1.891-1.829,2.187-3.758,1.243c-1.125-0.55-2.317-0.98-3.327-1.752c-0.147-0.291-0.472-0.234-0.703-0.357l-0.015-0.004
		C134.144,116.738,135.248,115.772,136.199,114.711z"/>
	<path fill-rule="evenodd" clip-rule="evenodd" fill="#8C8B8A" d="M223.529,96.461c-2.2,2.273-4.671,4.254-7.013,6.373
		c-4.009,3.629-8.065,7.205-12.109,10.794c-0.332,0.295-0.592,0.725-1.255,0.751c-0.689-2.021-1.396-4.072-2.091-6.13
		c-1.231-3.646-2.46-7.296-3.681-10.946c-0.09-0.268-0.107-0.56-0.158-0.841c0.359-0.259,0.775-0.17,1.17-0.17
		c7.988-0.006,15.978-0.006,23.967-0.001C222.754,96.292,223.169,96.204,223.529,96.461z"/>
	<path fill-rule="evenodd" clip-rule="evenodd" fill="#9B8E88" d="M223.529,96.461c-8.769,0-17.537,0-26.307,0.001
		c0.332-0.669,0.943-0.333,1.41-0.335c6.612-0.025,13.225-0.019,19.836-0.017c1.668,0.002,3.334,0.014,5.001,0.025
		c0.049,0,0.14,0.06,0.137,0.084C223.6,96.302,223.559,96.381,223.529,96.461z"/>
	<path fill-rule="evenodd" clip-rule="evenodd" fill="#F2EA9E" d="M141.23,138.311c-0.078,0.246-0.258,0.366-0.504,0.366
		c-1.412,0.005-2.824,0.003-4.163,0.003c-0.308-0.656,0.267-0.979,0.205-1.439l0.005-0.01c0.219-0.171,0.131-0.515,0.381-0.667
		l-0.018,0.021c0.215-0.245,0.43-0.251,0.645,0.001l-0.008-0.006c0.213,0.159,0.537,0.096,0.699,0.354l-0.012-0.007
		c0.217,0.153,0.535,0.097,0.707,0.343l-0.008-0.004c0.209,0.166,0.531,0.103,0.697,0.353l-0.007-0.005
		c0.21,0.163,0.532,0.101,0.698,0.352l-0.008-0.006c0.211,0.162,0.531,0.103,0.699,0.351H141.23z"/>
	<path fill-rule="evenodd" clip-rule="evenodd" fill="#131312" d="M141.717,161.769c11.145,0.031,20.586,7.623,22.822,18.386
		c0.244,1.178,0.323,2.393,0.457,3.593c0.117,1.032-0.078,1.96-1.025,2.569c-0.979,0.628-1.854,0.279-2.725-0.283
		c-4.17-2.694-8.758-4.296-13.636-5.05c-8.841-1.364-17.165,0.135-24.913,4.663c-0.396,0.23-0.773,0.502-1.186,0.7
		c-1.613,0.776-3.079-0.065-3.143-1.863c-0.084-2.32,0.252-4.603,1.04-6.785c3.19-8.839,9.464-14.009,18.7-15.643
		C139.31,161.844,140.508,161.781,141.717,161.769z"/>
	<path fill-rule="evenodd" clip-rule="evenodd" fill="#121212" d="M135.361,131.666c0.035,0.721-0.563,0.831-1.03,1.067
		C134.447,132.158,134.766,131.779,135.361,131.666z"/>
	<path fill-rule="evenodd" clip-rule="evenodd" fill="#121212" d="M137.256,131.661c-0.637,0.005-1.271,0.01-1.908,0.015
		C135.98,131.182,136.617,131.217,137.256,131.661z"/>
	<path fill-rule="evenodd" clip-rule="evenodd" fill="#121212" d="M146.432,133.069c0.007,0.295-0.053,0.557-0.348,0.701
		C146.087,133.481,146.154,133.223,146.432,133.069z"/>
	<path fill-rule="evenodd" clip-rule="evenodd" fill="#121212" d="M146.088,133.763c0.006,0.294-0.055,0.555-0.35,0.7
		C145.744,134.175,145.811,133.916,146.088,133.763z"/>
	<path fill-rule="evenodd" clip-rule="evenodd" fill="#121212" d="M145.742,134.454c0.005,0.295-0.057,0.557-0.357,0.697
		C145.396,134.863,145.464,134.604,145.742,134.454z"/>
	<path fill-rule="evenodd" clip-rule="evenodd" fill="#121212" d="M147.468,130.993c0.008,0.297-0.052,0.559-0.349,0.703
		C147.125,131.408,147.191,131.149,147.468,130.993z"/>
	<path fill-rule="evenodd" clip-rule="evenodd" fill="#121212" d="M147.123,131.688c0.006,0.295-0.055,0.557-0.354,0.698
		C146.776,132.098,146.844,131.839,147.123,131.688z"/>
	<path fill-rule="evenodd" clip-rule="evenodd" fill="#121212" d="M147.811,130.299c0.01,0.298-0.049,0.561-0.349,0.706
		C147.466,130.714,147.527,130.452,147.811,130.299z"/>
	<path fill-rule="evenodd" clip-rule="evenodd" fill="#121212" d="M148.16,129.597c0.006,0.302-0.052,0.57-0.356,0.716
		C147.81,130.018,147.877,129.753,148.16,129.597z"/>
	<path fill-rule="evenodd" clip-rule="evenodd" fill="#121212" d="M133.958,118.279c0.313-0.035,0.587,0.006,0.704,0.357
		C134.381,118.607,134.104,118.573,133.958,118.279z"/>
	<path fill-rule="evenodd" clip-rule="evenodd" fill="#121212" d="M146.775,132.374c0.008,0.297-0.051,0.56-0.349,0.705
		C146.432,132.789,146.492,132.527,146.775,132.374z"/>
	<path fill-rule="evenodd" clip-rule="evenodd" fill="#121212" d="M138.635,132.351c-0.158-0.087-0.317-0.175-0.477-0.262
		C138.378,132.066,138.541,132.146,138.635,132.351z"/>
	<path fill-rule="evenodd" clip-rule="evenodd" fill="#121212" d="M144.884,135.457c-0.212-0.006-0.384-0.087-0.505-0.265
		C144.602,135.176,144.779,135.247,144.884,135.457z"/>
	<path fill-rule="evenodd" clip-rule="evenodd" fill="#121212" d="M143.514,134.765c-0.216-0.004-0.393-0.084-0.518-0.264
		C143.221,134.486,143.404,134.554,143.514,134.765z"/>
	<path fill-rule="evenodd" clip-rule="evenodd" fill="#121212" d="M144.189,135.112c-0.213-0.009-0.383-0.093-0.503-0.271
		C143.911,134.825,144.086,134.902,144.189,135.112z"/>
	<path fill-rule="evenodd" clip-rule="evenodd" fill="#121212" d="M139.328,132.695c-0.16-0.086-0.318-0.172-0.479-0.259
		C139.067,132.417,139.232,132.491,139.328,132.695z"/>
	<path fill-rule="evenodd" clip-rule="evenodd" fill="#121212" d="M142.813,134.421c-0.211-0.005-0.383-0.085-0.507-0.261
		C142.528,134.142,142.707,134.21,142.813,134.421z"/>
	<path fill-rule="evenodd" clip-rule="evenodd" fill="#121212" d="M142.102,134.076c-0.206-0.006-0.371-0.089-0.486-0.261
		C141.834,133.796,142.003,133.87,142.102,134.076z"/>
	<path fill-rule="evenodd" clip-rule="evenodd" fill="#121212" d="M141.41,133.731c-0.207-0.009-0.371-0.093-0.487-0.268
		C141.145,133.446,141.313,133.523,141.41,133.731z"/>
	<path fill-rule="evenodd" clip-rule="evenodd" fill="#121212" d="M145.398,135.134c-0.105,0.213-0.284,0.316-0.516,0.342
		C145.055,135.361,145.227,135.247,145.398,135.134z"/>
	<path fill-rule="evenodd" clip-rule="evenodd" fill="#121212" d="M137.943,132.005c-0.201-0.009-0.363-0.093-0.477-0.264
		C137.687,131.719,137.851,131.798,137.943,132.005z"/>
	<path fill-rule="evenodd" clip-rule="evenodd" fill="#121212" d="M140.73,133.384c-0.211-0.007-0.379-0.09-0.499-0.266
		C140.455,133.1,140.629,133.175,140.73,133.384z"/>
	<path fill-rule="evenodd" clip-rule="evenodd" fill="#121212" d="M140.035,133.038c-0.206-0.004-0.374-0.084-0.494-0.256
		C139.761,132.763,139.934,132.831,140.035,133.038z"/>
	<path fill-rule="evenodd" clip-rule="evenodd" fill="#121212" d="M150.596,134.116c0.004-0.281,0.066-0.532,0.342-0.675
		C150.949,133.729,150.852,133.964,150.596,134.116z"/>
	<path fill-rule="evenodd" clip-rule="evenodd" fill="#121212" d="M148.53,138.273c-0.003-0.284,0.056-0.537,0.332-0.687
		C148.869,137.873,148.801,138.123,148.53,138.273z"/>
	<path fill-rule="evenodd" clip-rule="evenodd" fill="#121212" d="M149.908,135.503c0-0.281,0.061-0.534,0.334-0.682
		C150.251,135.108,150.169,135.349,149.908,135.503z"/>
	<path fill-rule="evenodd" clip-rule="evenodd" fill="#121212" d="M149.563,136.196c0-0.282,0.061-0.535,0.339-0.682
		C149.911,135.803,149.826,136.045,149.563,136.196z"/>
	<path fill-rule="evenodd" clip-rule="evenodd" fill="#121212" d="M151.29,132.737c0.001-0.281,0.061-0.533,0.333-0.681
		C151.633,132.342,151.55,132.582,151.29,132.737z"/>
	<path fill-rule="evenodd" clip-rule="evenodd" fill="#121212" d="M149.219,136.887c0-0.284,0.061-0.537,0.34-0.681
		C149.567,136.494,149.477,136.733,149.219,136.887z"/>
	<path fill-rule="evenodd" clip-rule="evenodd" fill="#121212" d="M148.869,137.573c0.004-0.281,0.065-0.533,0.344-0.675
		C149.223,137.187,149.122,137.419,148.869,137.573z"/>
	<path fill-rule="evenodd" clip-rule="evenodd" fill="#121212" d="M150.249,134.805c0.005-0.278,0.067-0.53,0.341-0.674
		C150.601,134.419,150.504,134.651,150.249,134.805z"/>
	<path fill-rule="evenodd" clip-rule="evenodd" fill="#121212" d="M150.944,133.428c0.001-0.281,0.063-0.534,0.339-0.678
		C151.295,133.038,151.203,133.274,150.944,133.428z"/>
	<path fill-rule="evenodd" clip-rule="evenodd" fill="#121212" d="M137.781,136.586c-0.215,0-0.43-0.001-0.645-0.001
		C137.352,136.193,137.566,136.184,137.781,136.586z"/>
	<path fill-rule="evenodd" clip-rule="evenodd" fill="#121212" d="M137.154,136.563c-0.05,0.268-0.121,0.521-0.381,0.667
		C136.779,136.939,136.85,136.685,137.154,136.563z"/>
	<path fill-rule="evenodd" clip-rule="evenodd" fill="#121212" d="M138.473,136.935c-0.283-0.02-0.561-0.049-0.699-0.354
		C138.078,136.558,138.343,136.614,138.473,136.935z"/>
	<path fill-rule="evenodd" clip-rule="evenodd" fill="#121212" d="M139.857,137.619c-0.283-0.017-0.556-0.055-0.697-0.353
		C139.461,137.248,139.725,137.305,139.857,137.619z"/>
	<path fill-rule="evenodd" clip-rule="evenodd" fill="#121212" d="M140.549,137.966c-0.281-0.021-0.557-0.055-0.698-0.352
		C140.152,137.595,140.416,137.65,140.549,137.966z"/>
	<path fill-rule="evenodd" clip-rule="evenodd" fill="#121212" d="M141.24,138.311c-0.285-0.015-0.559-0.05-0.699-0.351
		C140.843,137.938,141.106,137.995,141.24,138.311z"/>
	<path fill-rule="evenodd" clip-rule="evenodd" fill="#121212" d="M139.168,137.271c-0.281-0.018-0.563-0.04-0.707-0.343
		C138.766,136.902,139.029,136.957,139.168,137.271z"/>
	<path fill-rule="evenodd" clip-rule="evenodd" fill="#FBF2A0" d="M154.434,171.019c-1.221,0.686-2.58,0.968-3.869,1.421
		c-3.079,1.081-6.207,2.027-9.273,3.146c-2.141,0.78-4.382,0.827-6.579,1.201c-3.924,0.669-7.688,1.86-11.313,3.554
		c0.206-4.601,5.127-10.578,10.949-12.902C141.639,164.527,150.096,166.517,154.434,171.019z"/>
	<path fill-rule="evenodd" clip-rule="evenodd" fill="#8A8989" d="M160.27,180.552c-3.227-1.543-6.253-2.55-9.451-3.321
		c0.307-0.425,0.721-0.508,1.122-0.64c1.683-0.553,3.362-1.115,5.036-1.693c0.555-0.191,0.949-0.157,1.271,0.431
		C159.098,176.875,159.828,178.459,160.27,180.552z"/>
	<path fill-rule="evenodd" clip-rule="evenodd" fill="#B7B4B4" d="M79.426,139.657c-0.142-0.02-0.283-0.038-0.426-0.058
		c0.135-0.275,0.365-0.391,0.607-0.2C79.734,139.501,79.592,139.638,79.426,139.657z"/>
	<path fill-rule="evenodd" clip-rule="evenodd" fill="#A3A0A0" d="M203.469,139.656c-0.141,0.135-0.281,0.269-0.422,0.403
		c-0.313-0.103-0.549-0.464-0.412-0.623C202.932,139.091,203.236,139.383,203.469,139.656z"/>
	<path fill-rule="evenodd" clip-rule="evenodd" fill="#050607" d="M195.912,146.004c5.742,2.273,11.482,4.546,17.17,6.798
		c0,0.237,0.034,0.364-0.006,0.462c-0.481,1.16-0.975,2.317-1.463,3.475c-1.275-0.093-2.354-0.757-3.504-1.207
		c-6.822-2.673-13.641-5.355-20.45-8.063c-0.575-0.229-1.45-0.22-1.397-1.229c0.063-1.235-0.268-1.323,1.191-1.894
		c5.755-2.252,11.492-4.55,17.239-6.824c1.862-0.737,3.739-1.439,5.593-2.197c0.428-0.174,0.842-0.311,1.359-0.412
		c0.465,1.151,0.898,2.27,1.371,3.372c0.18,0.42,0.039,0.653-0.323,0.814c-0.366,0.162-0.743,0.303-1.116,0.451
		c-4.949,1.958-9.9,3.919-14.854,5.87C196.456,145.526,196.164,145.562,195.912,146.004z"/>
	<path fill-rule="evenodd" clip-rule="evenodd" fill="#050607" d="M86.126,147.323c-2.906-1.16-5.446-2.179-7.991-3.188
		c-2.82-1.119-5.646-2.224-8.464-3.349c-1.163-0.464-1.187-0.492-0.759-1.544c0.384-0.944,0.43-2.307,1.283-2.706
		c0.867-0.405,1.895,0.515,2.834,0.883c7.035,2.756,14.056,5.549,21.086,8.313c0.72,0.283,1.33,0.472,1.293,1.501
		c-0.032,0.888-0.32,1.307-1.131,1.624c-7.68,3.002-15.344,6.043-23.014,9.067c-1.149,0.453-1.176,0.45-1.658-0.785
		c-0.352-0.9-1.197-1.875-0.87-2.703c0.331-0.837,1.637-0.892,2.524-1.247C76.092,151.252,80.943,149.362,86.126,147.323z"/>
</g>
</svg>
