<?xml version="1.0" encoding="utf-8"?>
<!-- Generator: Adobe Illustrator 16.0.0, SVG Export Plug-In . SVG Version: 6.00 Build 0)  -->
<!DOCTYPE svg PUBLIC "-//W3C//DTD SVG 1.1//EN" "http://www.w3.org/Graphics/SVG/1.1/DTD/svg11.dtd">
<svg version="1.1" id="Layer_1" xmlns="http://www.w3.org/2000/svg" xmlns:xlink="http://www.w3.org/1999/xlink" x="0px" y="0px"
	 width="410.667px" height="514.333px" viewBox="0 0 410.667 514.333" enable-background="new 0 0 410.667 514.333"
	 xml:space="preserve">
<g>
	<path fill="#9E1E1E" d="M331.855,61.42c-13.939-7.157-28.455-10.787-43.147-10.787c-37.24,0-66.891,23.164-83.374,39.785
		c-16.482-16.621-46.135-39.785-83.377-39.785c-14.689,0-29.206,3.63-43.146,10.787c-33.844,17.378-49.058,52.638-42.837,99.284
		c2.948,22.111,16.831,45.694,36.7,69.949v88.657c0,7.605,6.166,13.771,13.771,13.771s13.771-6.166,13.771-13.771v-58.107
		c4.055,4.169,8.219,8.347,12.474,12.531v146.567c0,2.766,2.242,5.008,5.008,5.008s5.008-2.242,5.008-5.008V283.448
		c1.798,1.721,3.606,3.441,5.426,5.162v100.702c0,6.223,5.045,11.268,11.268,11.268s11.268-5.045,11.268-11.268v-79.759
		c6.138,5.626,12.311,11.243,18.464,16.841c8.462,7.697,16.453,14.967,24.307,22.224l11.896,10.993l11.895-10.993
		c1.037-0.959,2.086-1.921,3.129-2.881v112.955c0,2.766,2.242,5.008,5.008,5.008s5.008-2.242,5.008-5.008V336.558
		c1.928-1.759,3.873-3.531,5.84-5.323v77.38c0,4.148,3.363,7.512,7.512,7.512s7.512-3.363,7.512-7.512V317.56
		c58.963-53.753,117.045-108.784,123.456-156.854C380.914,114.058,365.701,78.798,331.855,61.42z M339.947,156.072
		c-5.07,38.018-69.895,96.989-121.983,144.375c-4.17,3.794-8.414,7.654-12.631,11.506c-4.21-3.846-8.447-7.7-12.612-11.489
		C140.626,253.073,75.792,194.094,70.722,156.072c-1.914-14.354-1.273-26.812,1.904-37.03c3.747-12.044,11.008-20.691,22.197-26.438
		c8.938-4.589,18.068-6.916,27.135-6.916c38.652,0,68.836,41.189,69.109,41.567l14.211,19.837l14.295-19.798
		c0.299-0.416,30.488-41.606,69.135-41.606c9.068,0,18.198,2.327,27.135,6.916c11.191,5.746,18.451,14.394,22.197,26.438
		C341.219,129.259,341.861,141.717,339.947,156.072z"/>
</g>
</svg>
