<?xml version="1.0" encoding="utf-8"?>
<!-- Generator: Adobe Illustrator 22.0.1, SVG Export Plug-In . SVG Version: 6.00 Build 0)  -->
<svg version="1.1"
	 id="svg96" xmlns:cc="http://creativecommons.org/ns#" xmlns:dc="http://purl.org/dc/elements/1.1/" xmlns:rdf="http://www.w3.org/1999/02/22-rdf-syntax-ns#"
	 xmlns="http://www.w3.org/2000/svg" xmlns:xlink="http://www.w3.org/1999/xlink" x="0px" y="0px" viewBox="0 0 383.9 626.8"
	 style="enable-background:new 0 0 383.9 626.8;" xml:space="preserve">
<style type="text/css">
	.st0{fill:#FF9600;}
</style>
<g id="g94" transform="translate(-163.02 -80.066)">
	<ellipse id="ellipse82" class="st0" cx="366.6" cy="698" rx="9.7" ry="12.9"/>
	<path id="path84" class="st0" d="M543.4,166.2c-61-26.7-121.8-53.8-182.4-81.1c-2.8-1.4-6.1-1.4-8.8,0
		c-61.1,27.1-122.1,54.2-183.1,81.2c-3.1,0.8-5.1,3.8-4.7,6.9c0.4,41.6,0,83.2,0.4,124.7c0.2,52.8,16.1,104.2,45.5,147.8
		c0,0.9-0.1,1.8-0.1,2.5c-0.8,9.6,5.6,26.1,13.6,19.9c0.9-0.7,1.6-1,2.2-1.2c1.2,1.5,2.4,2.9,3.6,4.3c0.7,4.5,0.1,11.3,0.2,15.1
		c0.1,7,1.1,25.1,15,18.1c3.8-1.9,6.5-5,8.5-8.5c1,0.9,1.9,1.8,2.9,2.6c0.1,1.3,0.4,2.6,0.8,4.1c2.6,9.8,1.1,81,1.1,81
		s1.7,15.7,12.2,15.7s11.3-15.7,11.3-15.7v-47.9c0,0,2.2-8.8,12.9-6.1s10.7,13.5,10.7,13.5v107.6c0,0,1.3,11.1,11.3,11.1
		c9.1,0,10.5-12.8,10.5-12.8l5.5-104.5c4.9,1.8,9.9,3.5,15,5c2.6,0.8,5.4,1.3,8.1,1.3l0.4,56.7c0,0,1.2,26.5,14.4,26
		c13-0.5,13.1-27.8,13.1-27.8v-41.8c0,0,2.5-13,10.3-13s9.8,10.7,9.8,16.5s1,20.8,1.4,24.5s4.8,10.9,12,11
		c7.1,0.1,11.5-10.7,11.5-14.5s0.8-50,0.8-50s-0.8-17.5,10.2-18.6c13.9-1.5,10.7,8.5,12.7,11.4s5,3.5,8.5,3.7s10.3-4.2,11-12.9
		c0.4-5.5,1.4-25.8,2-39.8c5.6-6,11-12.4,16-19c38-47.8,58.6-107.1,58.4-168.1v-53.9c-0.2-22.4-0.2-44.9,0.1-67.3
		C548.6,170.6,546.6,167.4,543.4,166.2L543.4,166.2z M515.1,198.6v100.5c0.2,33-7.1,65.4-20.8,95c-16.8,40.5-39.5,73.5-46.2,73.7
		c-3.3,0.1-4.6,3-6.4,7.4c-2,4.8-4.2,11.5-6.8,12.9c-4,2.2-5.5,1.7-10,2.1c-7.6,0.7-6,21.2-7.9,26.7c-0.6,1.7-2.7,6.5-6.8,7.5
		c-1.9,0.5-4.5-0.3-6.8-2.2c-4.3-3.4-2.3-12.9-8.3-17.1c-10.4-7.4-16.6,7-16.6,7v15.6c0,0-0.4,11.7-6.6,9.4
		c-6.2-2.2-5.2-15.5-5.2-15.5v-12.5c-1,0.3-2,0.6-3.1,1c-4.8,1.5-10,1.5-14.8,0c-5.6-1.7-11.1-3.6-16.4-5.8
		c-0.5,4.1-1.3,9.1-2.6,10.1c-2.5,1.8-6.5,2.5-10.5-0.2c-3.7-2.5-5.7-11.4-6.1-17.5c0-0.5,0-0.9-0.1-1.3
		c-28.2-14.8-52.8-36.1-71.5-62.4c-28.5-38-43.9-84.2-44.2-131.6c-0.4-34.5,0-68.9,0-103.4c-0.3-2.6,1.3-5,3.8-5.7
		c50.4-22.3,100.9-44.8,151.4-67.4c2.3-1.2,5-1.2,7.3,0c50.4,22.6,100.8,45,151.2,67.2C513.9,193.1,515.5,195.8,515.1,198.6
		L515.1,198.6z"/>
	<path id="path88" class="st0" d="M359.5,155c-1.9-1-4.2-1-6.2,0c-42.7,19-85.2,37.9-127.8,56.8c-2,0.7-3.3,2.6-3.2,4.7v87.3
		c0.1,9.5,0.8,19.1,2.3,28.5c1.5,9.3,3.6,18.4,6.4,27.4L433.5,188L359.5,155z"/>
	<path id="path90" class="st0" d="M487.1,211.7l-23.7-10.5L242.8,388c2.3,4.4,4.7,8.8,7.3,13v22.7c0,0-1.1,8.3,5.2,9.7
		c6.2,1.4,6.6-5.9,6.6-5.9v-9.6c3.4,4.4,7,8.7,10.8,12.8L449,281.5v6.1c0,0-1.1,8.3,5.2,9.7c6.2,1.4,6.6-5.9,6.6-5.9v-19.9l9.6-8.1
		c0.8,1.4,2,2.6,4,3c6.2,1.4,6.6-5.9,6.6-5.9v-6.2l9.4-8V217C490.8,214.7,489.4,212.4,487.1,211.7L487.1,211.7z"/>
	<path id="path92" class="st0" d="M490.5,285L294.4,451.1c3.4,2.7,7,5.2,10.6,7.7c0.1,0.3,0.3,0.7,0.4,1.1
		c1.4,3.8,7.8,11.6,12.6,8.4c2.4-1.6,6.4,3.9,6.4,6.8s2.3,6.8,7.3,6.8c3.7,0,5.9-2.7,7.1-5.7c3.7,1.4,7.4,2.6,11.1,3.7
		c4.1,1.3,8.4,1.3,12.5,0c11.4-3.4,22.4-8,32.7-13.6v17.3c0,0,2.5,6.6,8.2,6.6c5,0,7.3-4.2,8-8.4c0.7-4.1,1.5-22.5,4.8-25.2
		c3.3-2.8,4.9,6.8,15.3,6.9c8.2,0.1,9.4-18.4,16.5-34.3c2.7-6,15.5-29.7,15.5-29.7c17.7-29.3,27.1-63.1,27-97.7
		C490.5,296.3,490.5,290.6,490.5,285z"/>
</g>
</svg>
