<svg height="1290.319" viewBox="0 0 176.634 341.397" width="667.592" xmlns="http://www.w3.org/2000/svg" xmlns:xlink="http://www.w3.org/1999/xlink"><g transform="translate(278.858 182.626)"><path d="M-171.086 102.846l-38.303-13.941-57.454 20.912 38.303 13.94z" fill="#ef2929"/><path d="M-171.086 102.846v13.941L-228.54 137.7v-13.941z" fill="#a40000"/><path d="M-228.54 123.758v13.941l-38.303-13.941v-13.941z" fill="#c00"/><path d="M-218.507 38.957l32.433-11.805v78.698l-32.433 11.805z" fill="#448605"/><path d="M-218.507 117.655l-21.623-7.87V31.087l21.623 7.87z" fill="#67bd14"/><path d="M-113.457 123.918l-38.303-13.941-57.455 20.911 38.303 13.941z" fill="#ef2929"/><path d="M-113.457 123.918v13.94l-57.455 20.913v-13.942z" fill="#a40000"/><path d="M-170.912 144.83v13.94l-38.303-13.94v-13.942z" fill="#c00"/><path d="M-214.327 45.72l27.028-9.837v65.583l-27.028 9.838z" fill="none" stroke="#3b6b0b" stroke-dasharray="1.432229 4.296687" stroke-width="1.432"/><path d="M-171.171 56.777l32.433-11.805v78.699l-32.433 11.804z" fill="#448605"/><path d="M-171.171 135.475l-21.622-7.87V48.908l21.622 7.87z" fill="#67bd14"/><path d="M-167.82 62.41l25.732-9.365v68.258l-25.732 9.366z" fill="none" stroke="#3b6b0b" stroke-dasharray="1.363525 4.090576" stroke-width="1.364"/><path d="M-259.808 2.77l-2.748 9c4.64 1.55 5.382 6.09 3.285 14.786L-263.19 25s1.882-5.995-2.334-7.67c-4.215-1.673-5.5 4.558-5.5 4.558l-3.918-1.555c1.962-8.545 5.492-10.855 8.264-10.063l2.748-9z" fill="#888a85"/><path d="M-263.725 1.214l-2.748 9c4.64 1.551 5.382 6.09 3.284 14.786l-3.917-1.556s1.881-5.995-2.334-7.669c-4.216-1.674-5.501 4.558-5.501 4.558l-3.917-1.556c1.962-8.545 5.491-10.855 8.264-10.063l2.747-9z" fill="#d3d7cf"/><path d="M-266.14-44.742l15.574 5.668-10.382 45.346L-276.52.604z" fill="#67bd14"/><path d="M-250.566-39.074l8.306 3.023-10.382 45.346-8.306-3.023z" fill="#326304"/><path d="M-260.246-90.148l20.606 7.5-13.738 60-20.606-7.5z" fill="#b5ed7f"/><path d="M-239.64-82.648l10.99 4-13.738 60-10.99-4z" fill="#3b7505"/><path d="M-102.225-70.17v110l-68.687 25v-110z" fill="#4e9a06"/><path d="M-267.073-80.17l96.161 35 68.687-25-96.161-35z" fill="#8ae234"/><path d="M-239.599-80.17l68.687 25 41.212-15-68.686-25z" fill="#3b7505"/><path d="M-170.912-135.17l41.212-15v78l-41.212 15z" fill="#4e9a06"/><path d="M-170.912-135.17l-68.687-25v78l68.687 25z" fill="#73d216"/><path d="M-239.599-160.17l68.687 25 41.212-15-68.686-25z" fill="#8ae234"/><path d="M-267.073-80.17l96.161 35v110l-96.161-35z" fill="#73d216"/><path d="M-198.387-125.17l13.738 5v10l-13.738-5zm-27.474-10v10l13.737 5v-10z" fill="#fff"/><path id="a" d="M-225.861-135.17c1.373.5 5.673 3.56 5.575 7.023-.068 2.383-4.202 3.476-5.575 2.976l13.737 5c-1.374-.5-5.453-3.6-5.54-7.023-.07-2.754 4.166-3.477 5.54-2.977z"/><path d="M-225.861-145.17l13.737 5v5l-13.737-5zm27.474 10l13.738 5v5l-13.738-5z"/><path d="M-205.255-128.67h-2.748l-15.11 34.5 4.12-.5z" fill="#8ae234"/><path d="M-202.508-126.67l1.374 30.5-13.737 5z" fill="#4e9a06"/><path d="M-202.508-126.67l-2.747-2-13.738 34 4.122 3.5z" fill="#6bbd1b"/><path d="M-216.245-91.67l21.98 8v10l-21.98-8z" fill="#c00"/><path d="M-213.498-80.67l1.374-2.5 1.374 3.5zm13.738 5l1.374-2.5 1.373 3.5zm-6.869-2.5l1.374-2.5 1.374 3.5zm-4.121-11.5l1.374 3.5 1.373-2.5zm8.242 3l1.374 3.5 1.374-2.5z" fill="#fff"/><path d="M-236.851-161.17l-2.748 1 .001 3 68.686 25v-3l2.748-1zm-27.475 80l-2.747 1v3l96.161 35v-3l2.748-1z" fill="#b5ed7f"/><path d="M-106.635-60.505v94.877l-59.867 21.79v-94.877z" fill="none" stroke="#3b6b0b" stroke-dasharray="1.718649 5.155946" stroke-width="1.719"/><path d="M-135.808 45.949l-2.747 9c4.64 1.551 5.382 6.09 3.284 14.786l-3.917-1.556s1.881-5.995-2.334-7.669c-4.216-1.674-5.501 4.558-5.501 4.558l-3.918-1.556c1.962-8.545 5.492-10.855 8.265-10.063l2.747-9z" fill="#888a85"/><path d="M-139.725 44.393l-2.747 9c4.64 1.551 5.381 6.091 3.284 14.786l-3.918-1.555s1.882-5.996-2.334-7.67c-4.215-1.674-5.5 4.558-5.5 4.558l-3.918-1.556c1.962-8.545 5.492-10.855 8.264-10.063l2.748-9z" fill="#d3d7cf"/><path d="M-142.139-1.563l15.574 5.668-10.382 45.347-15.574-5.669z" fill="#67bd14"/><path d="M-126.565 4.105l8.306 3.023-10.383 45.347-8.305-3.023z" fill="#326304"/><path d="M-136.246-46.968l20.606 7.5-13.737 60-20.606-7.5z" fill="#b5ed7f"/><path d="M-115.64-39.468l10.99 4-13.737 60-10.99-4z" fill="#3b7505"/><path d="M-253.336-.208l68.687 25v14.709l-68.687-25z" fill="#d3d7cf"/><path d="M-228.609 13.56l-17.858-6.5v2l17.858 6.5v3l19.233 7v-3l19.23 7 .002-2-19.232-7v-2l-19.233-7z" fill="#888a85"/><path d="M-234.538 16.233l2.748 1v1.576l-2.748-1z" fill="#2e3436"/><path d="M-206.474 25.768l6.868 2.5v3.809l-6.868-2.5z" fill="#888a85"/><path d="M-206.28 26.076l6.229 2.267v3.198l-6.228-2.267z" fill="#d3d7cf"/><path d="M-234.226-38.247l-1.641-.6v1.643l-4.925-1.799v3.284l-3.283-1.2v-9.849l8.208 2.997v1.642l1.641.6zm-3.283-1.198v-3.284l-3.283-1.198v3.283zm16.416 10.918l-3.283-1.199v-1.641l-1.642-.6v-1.641l-1.641-.6v3.283l-3.283-1.198v-9.85l3.283 1.199v3.283l1.641.6v-1.642l1.642.6v-1.642l3.283 1.198v1.642l-1.641-.6v1.642l-1.642-.6v3.284l1.642.6v1.64l1.641.6zm13.133 3.153l-1.642-.6v1.642l-6.566-2.397v-1.642l-1.642-.6v-6.565l1.642.599v-1.642l6.566 2.398v1.641l1.642.6v1.641l-3.283-1.198v-1.642l-3.284-1.199v6.567l3.284 1.198v-1.641l3.283 1.198zm13.133 4.794l-1.642-.599v1.642l-6.566-2.397v-1.642l4.924 1.798v-3.283l-4.924-1.798v-1.642l-1.642-.599v-1.642l1.642.6v-1.642l6.566 2.398v1.641l-4.925-1.798v1.642l4.925 1.798v1.641l1.642.6zm-50.158 7.699l-1.473-.538v1.473l-2.945-1.076v-1.472l-2.946-1.076v1.473l-2.945-1.075v-1.473l-1.473-.538v-1.472l1.473.537v-2.945l-1.473-.538v-1.473l1.473.538v-1.473l2.945 1.076v1.473l2.946 1.075v-1.473l2.945 1.076v1.472l1.473.538v1.473l-1.473-.538v2.945l1.473.538zm-4.418-3.086v-2.945l-2.946-1.076v2.946zm14.727 8.322l-8.836-3.226v-1.472l2.945 1.075v-4.418l-1.473-.538v-1.473l1.473.538v-1.473l2.945 1.076v7.363l2.946 1.076zm15.554 2.734l-1.473-.538v1.473l-1.473-.538v1.473l-2.945-1.076v-1.472l-1.473-.538V-7.6l-1.472-.537v-4.418l2.945 1.075v4.418l2.945 1.075v-4.418l2.946 1.076zm11.782 7.247l-8.837-3.226v-1.473l2.946 1.075v-4.418l-1.473-.538v-1.472l1.473.537V-8.65l2.945 1.075v7.364l2.945 1.075zm8.836 3.226l-2.946-1.076V1.541l2.946 1.075zm14.727 3.904l-1.473-.538v1.473l-5.89-2.15V6.777l-1.474-.538V4.767l2.946 1.076v1.472l2.945 1.076V5.445l-5.89-2.15v-4.419l8.836 3.226v1.473l-5.891-2.15v1.472l4.418 1.613v1.473l1.473.538z"/><use height="100%" transform="translate(27.475 10)" width="100%" xlink:href="#a"/><path d="M-151.736-123.697c0-7.398 0-14.796.089-20.685s.264-10.268-.976-13.368-3.898-4.921-6.434-4.445-4.951 3.25-4.951 6.948c0 3.699 2.414 8.321 4.95 7.845s5.194-6.052 3.987-10.212-6.28-6.906-10.023-6.892c-3.744.014-6.158 2.787-6.158 6.486 0 3.698 2.414 8.32 4.829 8.32 2.415 0 4.83-4.622 3.622-8.782-1.207-4.16-6.037-7.859-9.659-8.321s-6.037 2.31-6.037 6.01c0 3.698 2.415 8.32 4.83 8.32 2.414 0 4.83-4.623 3.622-8.783-1.207-4.16-6.037-7.858-9.66-8.32s-6.036 2.31-6.036 6.009c0 3.698 2.414 8.32 4.83 8.32s4.829-4.623 3.622-8.783c-1.208-4.16-6.037-7.858-9.421-8.103-3.384-.244-5.322 2.966-5.084 6.882s2.653 8.539 5.176 8.518c2.524-.02 5.157-4.685 3.95-8.845-1.208-4.16-6.256-7.817-9.986-8.259-3.731-.442-6.146 2.332-6.146 6.03 0 3.699 2.414 8.321 4.83 8.321 2.414 0 4.829-4.623 3.622-8.783-1.208-4.16-6.038-7.858-9.66-8.32s-6.036 2.31-6.036 6.009c0 3.698 2.414 8.32 4.829 8.32s4.83-4.622 3.622-8.783c-1.207-4.16-6.037-7.858-9.659-8.32s-6.037 2.31-6.037 6.01c0 3.698 2.415 8.32 4.83 8.32s4.83-4.623 3.622-8.783c-1.207-4.16-6.037-7.859-9.42-8.103-3.385-.244-5.323 2.965-6.292 5.714-.97 2.749-.97 5.036-.97 6.4v2.248" fill="none" stroke="#000" stroke-linecap="round" stroke-linejoin="round" stroke-width="1.389"/><g transform="rotate(2.516 -801.226 954.133) scale(1.25522)"><g fill="#ef2929"><ellipse cx="-157.174" cy="-110.171" rx="6.869" ry="12.727"/><path d="M-155.8-122.67l4.12 1.5v2l-4.12-1.5zm-2.748 25l4.121 1.5v-1l-4.121-1.5z"/></g><ellipse cx="-153.053" cy="-108.671" fill="#a40000" rx="6.869" ry="12.727"/></g><path d="M-264.086-70.92l88.926 32.367v97.329l-88.926-32.367z" fill="none" stroke="#4e9a06" stroke-dasharray="1.971856 5.915569" stroke-width="1.972"/><path d="M-222.214-168.043v1.546l1.386-.505v-1.063l-1.386.022z"/></g></svg>