<svg height="307.488" width="288.32" xmlns="http://www.w3.org/2000/svg"><path d="M18.057 0c-.536-.036-1.364.156-1.932.667s-.756 1.093-.833 1.5c-.152.812-.037 1.229.068 1.666.208.88.561 1.787 1.099 3 1.072 2.422 2.869 5.886 5.432 10.531 16.697 30.297 28.682 52.25 36.401 66.605 3.859 7.171 6.667 12.432 8.432 15.895.079.157.093.193.167.333-.495-.15-.776-.224-1.334-.394a951.977 951.977 0 0 1-14.234-4.606A972.244 972.244 0 0 0 36.989 90.6a357.152 357.152 0 0 0-4.598-1.402c-.574-.166-1.027-.301-1.402-.394a8.674 8.674 0 0 0-.53-.136c-.167-.031-.11-.115-.834-.068-.516.037-1.765.932-1.765.932 0 .005-.516 1.078-.537 1.401-.031.647.078.813.136.97.109.311.166.415.234.53.13.235.266.417.432.667.334.505.812 1.172 1.432 2.037a545.943 545.943 0 0 0 5.334 7.197c4.51 6.016 10.745 14.219 17.536 23.068 13.578 17.698 29.302 37.932 37.568 48.167 22.912 28.364 49.494 71.13 49.494 71.13 1.626 2.766 5.787.422 4.271-2.395 0 0-.099-.199-.104-.204-.093-.192-3.959-7.828-8.063-15.932-4.156-8.203-8.4-16.531-9.066-17.803v-.03c-4.642-8.531-15.772-30.407-25.636-50.167A3204.58 3204.58 0 0 1 87.989 132a704.594 704.594 0 0 1-3.296-6.833c3.495 1.328 11.656 4.036 19.364 6.5a633.502 633.502 0 0 0 10.47 3.265c1.421.428 2.629.787 3.53 1.037.454.119.818.192 1.136.266.156.036.307.072.463.098.15.027.27.094.735.068h.036a2.692 2.692 0 0 0 1.562-.734c.47-.47.647-1.006.704-1.364.11-.724 0-.97-.068-1.167-.125-.407-.229-.543-.333-.735a16.666 16.666 0 0 0-.803-1.302c-.672-.995-1.65-2.348-2.901-4.031-2.495-3.365-6.052-7.948-10.061-13-7.986-10.057-23.866-30.333-35.272-45C61.839 54.38 49.36 38.547 45.42 33.735 41.615 29.073 35.22 20.63 31.323 15.13 28 10.437 25.364 6.89 23.39 4.464c-.99-1.213-1.798-2.13-2.5-2.833a9.761 9.761 0 0 0-1.068-.934c-.37-.27-.692-.629-1.766-.697zM124.26 58.068c-7.453-.032-13.87 2.687-18.87 6.03a6.405 6.405 0 1 0 7.137 10.637c3.484-2.334 7.312-3.886 11.666-3.866 3.916.016 8.504 1.267 14.099 5.199v42.296a6.4 6.4 0 1 0 12.801 0v-43.03c4.99-3.323 9.172-4.454 12.834-4.47 4.36-.015 8.286 1.537 11.797 3.87 4.74 3.146 8.276 7.531 10.099 10.069l-18.162 42.265a6.392 6.392 0 0 0 3.303 8.536 6.399 6.399 0 0 0 8.463-3.505l18.396-42.796c9.552-1.344 16.13-.33 20.636 1.598 5.088 2.172 7.926 5.484 9.869 9.364 2.38 4.766 2.975 10.204 3.063 13.704l-32.198 32.198c-6.272 6.046 3.047 15.322 9.067 9.036l30.13-30.135c10.137 2.265 15.97 5.85 19.37 9.53 3.61 3.923 4.839 8.173 5 12.705.213 6.186-1.932 12.328-3.333 15.629l-43.234 25.803a6.404 6.404 0 0 0-2.261 8.806 6.403 6.403 0 0 0 8.828 2.194l40.396-24.136c12.672 7.874 13.35 15.781 12.104 23.204-1.203 7.156-5.025 12.536-5.77 13.566l-58.031 33.495a6.401 6.401 0 0 0-3.199 5.537v32.13l-32.536.333 13.568-10.932a6.393 6.393 0 0 0 1.276-9.219 6.398 6.398 0 0 0-9.276-.744l-37.13 29.895-37.135-29.895a6.4 6.4 0 0 0-4.136-1.469c-6.052.052-8.656 7.697-3.896 11.432l13.562 10.937-32.53-.333v-32.135a6.408 6.408 0 0 0-3.199-5.532L18.76 212.333c-.776-1.073-4.541-6.412-5.733-13.53-1.204-7.158-.548-14.772 10.864-22.371l38.969 23.303c3.041 1.849 7 .864 8.828-2.194a6.405 6.405 0 0 0-2.261-8.806L29.89 165.136c-.438-.839-4.667-9.224-4.364-17.833.161-4.532 1.385-8.782 5-12.704 4.041-4.235.738-11.224-5.1-10.796a6.406 6.406 0 0 0-4.302 2.129c-5.901 6.401-8.156 14.115-8.401 20.937-.27 7.762 1.697 14.407 3.5 18.964-.068.219-.12.443-.167.667-14.041 10.203-17.39 23.921-15.63 34.401 1.964 11.714 8.766 20.167 8.766 20.167a6.37 6.37 0 0 0 1.834 1.568l56.202 32.463v34.77a6.397 6.397 0 0 0 6.334 6.396l53.432.538c.489.009.984-.032 1.464-.136l11.666 9.401a6.402 6.402 0 0 0 8.036 0l11.667-9.401c.479.104.975.145 1.464.136l53.437-.538a6.4 6.4 0 0 0 6.334-6.396V255.1l56.234-32.463a6.478 6.478 0 0 0 1.834-1.568s6.796-8.453 8.765-20.167c1.77-10.562-1.661-24.437-16-34.666 1.839-4.568 3.948-11.38 3.667-19.366-.24-6.822-2.5-14.536-8.402-20.937-5.052-5.473-12.677-9.735-23-12.5-.082-4.781-.838-11.776-4.401-18.896-3-6.005-8.23-11.968-16.265-15.4-7.156-3.063-16.38-3.99-27.766-2.37-2.317-3.334-6.089-8.178-12.901-12.698-5.036-3.344-11.479-6.032-18.932-6-6.245.025-12.99 2.197-19.765 6.63-6.86-4.427-13.62-6.605-19.871-6.63z" fill="#b50000"/></svg>