<?xml version="1.0" encoding="utf-8"?>
<!-- Generator: Adobe Illustrator 22.0.1, SVG Export Plug-In . SVG Version: 6.00 Build 0)  -->
<svg version="1.1"
	 id="Layer_1" xmlns:cc="http://creativecommons.org/ns#" xmlns:dc="http://purl.org/dc/elements/1.1/" xmlns:rdf="http://www.w3.org/1999/02/22-rdf-syntax-ns#"
	 xmlns="http://www.w3.org/2000/svg" xmlns:xlink="http://www.w3.org/1999/xlink" x="0px" y="0px" viewBox="0 0 702.1 555.7"
	 style="enable-background:new 0 0 702.1 555.7;" xml:space="preserve">
<style type="text/css">
	.st0{fill:#FFFFFF;}
	.st1{fill:#036994;}
	.st2{fill:none;stroke:#036994;stroke-width:14.4734;stroke-linecap:round;stroke-miterlimit:10;}
	.st3{fill:#FFFFFF;stroke:#036994;stroke-width:14.4734;stroke-linecap:round;stroke-linejoin:round;stroke-miterlimit:10;}
</style>
<g transform="translate(-65.664 -87.073)">
	<path class="st0" d="M555.3,541.1c0,0,9.6,47.7,46.1,50.9s-38.6,63.8-105.1-3.2c0,0-34.8,83.1-89,11.3c0,0-47.7,77.7-92.7,1.1
		c0,0-46.6,68.6-88.4,3.8c0,0-56.3,62.2-104-5.9c0,0,55.7-8,60-40.7s-1.6-278.7-1.6-278.7s22.5-176.9,178.5-186
		s188.7,159.2,188.7,159.2L555.3,541.1z"/>
	<path class="st1" d="M342.5,88.8c41.7-6,85.1,3.8,121.1,26.8c31,19.6,56.5,48.7,73.4,82.5c15.3,30.4,23.6,64.6,24.4,99
		c0.1,1.9,0.4,3.8,0.4,5.6v220.6c0,2.2-0.1,4.4,0.2,6.6c0.5,3.9,0,7.8,0.8,11.7c1.1,5.3,2.5,10.7,5.1,15.4c7.2,14.2,21,23.8,35.6,27
		c3,0.7,6.5,0.6,8.8,3.2c3.6,3.5,3.2,10.5-0.9,13.4c-2,1.2-3.2,3.5-4.8,5.2c-12.7,15.1-31.5,23.8-50.4,24.6
		c-21.4,1.4-43.3-7.3-58-24c-2.4,4.1-5,8.1-8.3,11.7c-3.2,3.8-7.1,6.7-10.9,9.5c-3,1.5-5.8,3.5-9,4.7c-8.8,3.9-18.6,4.7-28,3.7
		c-13.5-1.8-26-9-35.1-19.7c-10.2,16.4-28.4,26.8-47,26.4c-5.3,0.3-10.5-1.1-15.5-2.2c-12.1-3.7-22.9-11.9-30.2-22.7
		c-7.8,10.9-19.4,18.4-31.9,21.4c-9.7,2.2-20,1.9-29.5-1.4c-7.6-2.5-14.5-6.8-20.4-12.4c-2-1.7-3.5-4.1-5.5-5.9
		c-12.2,11.4-28.2,18.2-44.5,19.1c-18.4,1.3-37.3-4.6-51.6-17.1c-4.3-3.6-8-7.8-11.4-12.4c-1.3-1.8-1.6-4.1-2.9-6
		c-2.5-3.8-1.3-9.4,2.3-11.9c2.4-1.9,5.6-1.5,8.4-1.9c10.6-1.5,20.8-6.3,28.9-13.6c9.6-8.7,16.2-21.7,16.3-35.2
		c0.5-12.7,0.1-25.4,0.2-38.1v-199c0.2-2.8-0.5-5.7-0.4-8.5c1.1-30.3,7.9-60.4,20.2-87.8c13.7-30.6,34.2-57.8,59.6-78.3
		C278.5,107.4,309.8,93.3,342.5,88.8 M356.9,105c-25.6,1.6-50.8,9.6-73.2,22.8c-21.4,12.6-40.3,30.1-55.2,50.7
		c-23.3,31.9-36.9,71.5-39.1,111.8c0.3,8.3,0.1,16.7,0.2,25v148.9c-0.1,25.6,0.2,51.2-0.1,76.7c-0.4,11.7-3.8,23.2-9.9,33
		c-9.3,15.5-24.7,26.3-41.3,30.9c5.3,5.1,11.4,9.2,18.1,11.9c8.7,3.7,18.3,4.7,27.6,3.9c12.8-1.1,25.2-7,34.4-16.5
		c1.6-1.4,1.4-3.9,2.8-5.5c2.5-3.5,7.7-4.4,11.1-1.9c2.1,1.4,3.1,4,4.4,6.1c1.8,2.8,3.8,5.5,6,7.9c5.2,5.7,12.1,9.4,19.4,11.1
		c3.8,0.9,7.7,0.8,11.5,0.7c14.2-0.9,27.4-10.7,33-24.6c2.2-6.4,11.3-8.1,15.4-3c1.7,2,2.1,4.8,3.4,7.2
		c4.9,10.1,13.7,17.9,23.9,21.1c4.2,1,8.5,1.9,12.8,1.6c14-0.3,27.5-9.2,33.7-22.5c1.6-2.8,2-6.3,4-8.9c2.7-3.6,8.3-4.1,11.6-1.2
		c1.7,1.3,2.3,3.6,3.6,5.2c1.4,1.8,2.5,3.8,3.9,5.6c7.6,9.7,19.2,16,31.2,15.5c6.3,0.1,12.8-1.4,18.3-4.8c5.8-3.3,11-8.1,14.7-14
		c1.8-2.8,2.7-6.1,4.3-9c1.1-1.7,0.6-4,1.6-5.7c1.7-3.9,6.2-5.9,10-4.4c3.1,1,4.8,4.1,6.8,6.7c3.4,5.7,8,10.6,13.2,14.6
		c17.1,13,40.9,14.7,59.8,5.1c4.4-2.2,8.4-5.3,12.3-8.5c-10.3-3.9-19.6-10.3-27.3-18.5c-6.7-7.4-12-16.5-14.7-26.4
		c-1.9-6-2.4-12.4-3-18.7V308.1c0-1.9-0.4-3.8-0.4-5.7c-0.1-18.8-2.5-37.6-7.4-55.7c-10.3-39.1-32.1-74.8-61.8-100.5
		c-13.8-11.7-29.2-21.7-45.7-28.3C407,107.7,381.8,103.4,356.9,105L356.9,105z"/>
	<path class="st1" d="M441.4,296.9c-9.5,3.3-20,3.8-29.8,1.1c-11.6-3.1-22-10.4-28.7-20.4c-6.3-9.2-9.4-20.5-8.7-31.6
		c0.6-11,5-21.8,12.3-30.2c0.5-0.6,1.2-0.9,1.9-1.1c16.7-4.6,33.4-9.3,50.1-14c1.3-0.4,2.6,0.4,3.9,0.8c12,4.4,22.1,13.5,27.7,24.9
		c4.2,8.5,6,18.2,5,27.6c-1.1,11.1-6.1,21.9-13.9,30C455.8,289.9,448.9,294.3,441.4,296.9z"/>
	<path class="st1" d="M300.2,299.4c-11.6-1.2-22.6-6.5-30.8-14.9c-12.2-12.3-17.4-31.1-12.9-47.9c4.1-16.7,17.4-30.9,33.9-35.8
		c17.1,4.3,34.1,9.1,51.2,13.6c1.6,0.2,2.5,1.7,3.4,2.8c4.9,6.1,8.4,13.2,10,20.9c2.4,10.3,1.3,21.5-3,31.2
		c-4.2,9.8-11.6,18.1-20.8,23.4C322,298.2,310.9,300.6,300.2,299.4L300.2,299.4z"/>
	<path class="st2" d="M282.8,345.2c0,0,78,36.2,163.2,0"/>
	<path class="st3" d="M149.3,428.8c0,0-30.6-18.5-57.3,10.4c-15.1,20.6-19.1,43.6-19.1,43.6l23.5-13.9l3.9,26.3l18.3-15l10.4,21.1
		c0,0,9.7-34.1,19-31.7C157.4,471.9,163.3,441,149.3,428.8z"/>
	<path class="st3" d="M647.6,389.2c0,0-15.9-34.1-41.2-30.8c-25.4,3.4-9.4,19.3-9.4,19.3s-24.8,6-9.8,20.6s-17,5.3-4.9,17.7
		s19.2,23.3,41,20.2C623.2,436.3,659.2,428,647.6,389.2L647.6,389.2z"/>
	<path class="st1" d="M742.1,226.3c8.8-22.8,22.9-53.1,23-53.4c1.4-3.1,0.1-6.7-3-8.1s-6.7-0.1-8.1,3c-0.1,0.2-6.9,14.8-14,31.4
		L729.7,179c-1.5-3-5.2-4.2-8.2-2.7s-4.2,5.2-2.7,8.2l14.7,28.8c0.1,0.2,0.2,0.4,0.4,0.6c-1.1,2.7-2.2,5.4-3.2,8
		c-6.3,16.3-7.9,26.7-8.2,32.7l-32.9,38l-4.4-25.9c-0.6-3.3-3.8-5.6-7.1-5s-5.6,3.7-5,7.1l6.1,35.8l-49.8,57.6
		c-1.1,1.3-1.6,2.9-1.5,4.6c0.2,1.7,1,3.2,2.3,4.2l6.7,5.3c1.3,1,2.9,1.5,4.5,1.3s3.1-1,4.1-2.3L731.6,265l32.7-16.3
		c3-1.5,4.3-5.2,2.8-8.2s-5.2-4.3-8.2-2.8L736.2,249l-0.7-0.5C736.4,243.4,738.3,236.1,742.1,226.3L742.1,226.3z"/>
	<path class="st1" d="M587.3,421.3l-10.8,14.9c-1.1,1.3-1.6,2.9-1.5,4.6c0.2,1.7,1,3.2,2.3,4.2l6.7,5.3c1.3,1,2.9,1.5,4.5,1.3
		s3.1-1,4.1-2.3l13.8-17.6h-11.6L587.3,421.3z"/>
</g>
</svg>
